PathFileType	4	(X/Y/Z)	/Users/mathieubourgeois/Desktop/Analyse/Traitement/Sujet_05/Data/Transformed_Sujet_05_velo_100.trc
DataRate	CameraRate	NumFrames	NumMarkers	Units	OrigDataRate	OrigDataStartFrame	OrigNumFrames
120.000000	120.000000	4	36	mm	120.000000	1443	1924
Frame#	Time	RFHD			RANE			STRN			LANI			LKNE			T10			RHUM			RWRB			C7			LFWT			LTOE			RTOE			LWRA			LBWT			RBWT			RFWT			LKNI			RKNI			RKNE			LANE			RANI			LHEE			RHEE			LHUM			LRAD			RRAD			RWRA			LWRB			LFHD			LBHD			RBHD			RSHO			LSHO			CLAV			LCAR			RCAR			
		X1	Y1	Z1	X2	Y2	Z2	X3	Y3	Z3	X4	Y4	Z4	X5	Y5	Z5	X6	Y6	Z6	X7	Y7	Z7	X8	Y8	Z8	X9	Y9	Z9	X10	Y10	Z10	X11	Y11	Z11	X12	Y12	Z12	X13	Y13	Z13	X14	Y14	Z14	X15	Y15	Z15	X16	Y16	Z16	X17	Y17	Z17	X18	Y18	Z18	X19	Y19	Z19	X20	Y20	Z20	X21	Y21	Z21	X22	Y22	Z22	X23	Y23	Z23	X24	Y24	Z24	X25	Y25	Z25	X26	Y26	Z26	X27	Y27	Z27	X28	Y28	Z28	X29	Y29	Z29	X30	Y30	Z30	X31	Y31	Z31	X32	Y32	Z32	X33	Y33	Z33	X34	Y34	Z34	X35	Y35	Z35	X36	Y36	Z36	

1444	12.025	148.5024261474609	1350.940551757812	104.1816406249999	-153.0466766357422	299.3105163574219	202.6631774902343	-191.4597473144531	1141.251831054688	29.73616600036612	-306.8586730957031	558.47021484375	-63.41162109375007	-72.00998687744139	837.6189575195312	-172.1889801025391	-327.4609375	1347.027709960938	39.60090637207018	30.3437690734863	1040.366821289062	198.0844421386718	243.7085418701172	892.93017578125	249.7148132324218	-100.0544815063477	1411.814453125	22.38508415222158	-362.165771484375	1073.09033203125	-80.5081024169923	-254.8684539794922	388.4955444335938	-80.19802093505865	16.78326034545896	195.5471649169922	160.0831146240234	279.8749084472656	940.8436889648438	-153.410385131836	-533.0579833984375	1099.144287109375	-8.22390174865736	-516.3651733398438	1105.366821289062	129.378936767578	-348.8246765136719	1062.194458007812	163.3601531982421	-63.00396728515624	812.1119384765625	-64.56504821777349	-126.2617111206055	659.1666259765625	112.2173690795898	-144.9336242675782	700.28662109375	216.9805297851562	-329.8429260253906	574.36572265625	-142.4387664794922	-116.8573608398438	306.6771545410156	122.0618515014648	-394.4453430175781	580.336181640625	-97.06911468505868	-210.0282897949219	277.9430541992188	156.5329589843749	25.44160652160646	1046.714233398438	-153.1908111572266	71.11174011230472	1076.98486328125	-199.0536804199219	70.15679931640622	1073.312744140625	249.6003723144531	275.8641662597656	937.5036010742188	200.3298034667968	249.5482482910157	888.5607299804688	-188.4658660888672	158.6859893798828	1349.745239257812	-42.60171127319342	39.45198440551759	1444.9912109375	-57.21139144897469	24.75646781921386	1470.256225585938	75.52217864990226	-23.19283676147463	1332.082885742188	173.3407287597655	-69.42193603515624	1329.817016601562	-131.1993408203126	-72.73310852050781	1266.80712890625	26.3706626892089	326.515625	937.9873046875	-227.01953125	324.9071350097656	927.3110961914062	287.6383361816406	
1445	12.03333333333333	149.0479583740234	1351.128662109375	101.9922714233398	-164.3312377929688	288.3460693359375	202.1020965576171	-191.2868499755859	1141.295654296875	28.91046905517569	-298.0448608398438	570.9164428710938	-62.16092681884773	-66.99383544921874	851.181396484375	-173.7983703613282	-327.0984191894531	1347.160888671875	39.57098770141589	30.03210067749021	1039.981567382812	197.9484558105468	243.701187133789	892.7689208984375	249.7668304443359	-99.83681488037109	1412.049560546875	20.74417114257803	-362.2501525878906	1073.6611328125	-79.20812225341808	-241.0020446777344	402.922119140625	-80.16789245605474	4.127172946929912	181.4898681640625	160.30615234375	279.4813537597656	940.9281616210938	-153.6795043945313	-532.5670776367188	1099.553955078125	-7.190413951873912	-515.2701416015625	1105.23876953125	130.4707183837889	-347.88720703125	1061.237915039062	163.582305908203	-57.00543594360351	826.3836059570312	-65.82505798339849	-136.6220092773438	648.5067749023438	111.2676315307617	-156.6341705322266	689.722412109375	216.4513702392578	-321.6136169433594	586.4601440429688	-141.2750396728516	-126.8682098388672	295.7573547363281	122.0162124633789	-386.7522277832031	590.6571655273438	-95.33354187011727	-220.7873840332032	268.423583984375	154.9889221191406	24.72571945190431	1046.195434570312	-153.8566894531251	70.48699188232425	1076.414794921875	-199.6021728515626	69.88436126708982	1072.998168945312	249.3243560791015	275.7806396484375	937.4501953125	200.3919372558593	249.3503112792969	888.4686889648438	-188.5786590576172	158.7532958984375	1349.666137695312	-44.84143447875983	39.6509017944336	1445.138671875	-59.1927909851075	25.87932014465331	1470.599731445312	73.29805755615226	-22.39099884033205	1332.157470703125	172.080108642578	-70.10296630859374	1329.472412109375	-132.8178100585938	-72.5177001953125	1267.06787109375	24.95894050598136	326.2847290039062	937.8262939453125	-227.2119445800782	324.9421997070312	927.1325073242188	287.6569519042969	
1446	12.04166666666667	149.7100982666016	1351.347290039062	99.95955657958977	-176.5516967773438	278.899658203125	201.4316253662109	-190.6916198730469	1141.623779296875	28.01604843139639	-288.6487121582031	582.555908203125	-61.04995346069343	-62.01745605468748	864.0972900390625	-174.2599182128907	-326.4781494140625	1347.494140625	39.49532318115222	29.94914245605466	1039.699462890625	197.7041473388671	243.7849884033203	892.5934448242188	249.7985534667968	-99.40110778808594	1412.354248046875	19.21767044067373	-362.2218017578125	1074.193359375	-78.56842803955089	-223.1878814697266	417.0638732910156	-80.45440673828131	-9.765186309814473	168.5686950683594	160.6710662841797	279.2499694824219	940.9698486328125	-153.9364624023438	-532.0243530273438	1100.350952148438	-6.446798801422251	-514.3287963867188	1105.4912109375	131.2318878173827	-347.0934448242188	1060.627075195312	163.7026214599609	-53.66757583618163	840.5230712890625	-66.99092102050787	-149.5612182617188	639.582275390625	110.7102432250976	-168.2243041992188	680.69189453125	215.8251190185546	-312.5935363769531	596.9676513671875	-139.9644012451172	-137.764877319336	286.2483215332031	121.9448776245117	-378.0025939941406	599.1983032226562	-93.69171905517587	-232.4444732666016	260.4822387695312	153.2787780761718	24.21484565734865	1045.8857421875	-154.5133361816407	69.89691162109378	1075.95556640625	-200.3985443115235	69.79685974121091	1072.705932617188	249.0444946289062	275.8271789550781	937.338134765625	200.4297332763672	249.2616119384766	888.3837280273438	-188.6905059814453	158.9866638183594	1349.680786132812	-46.92052459716803	40.03028106689454	1445.327026367188	-61.0727844238282	26.64280128479003	1470.990966796875	71.44541168212882	-21.50715065002444	1332.239379882812	170.9203491210937	-70.50180053710936	1329.177368164062	-134.3754119873048	-72.10036468505859	1267.443725585938	23.63936042785636	326.0323181152344	937.7792358398438	-227.1970977783203	325.0709838867187	926.940185546875	287.6598205566406	
1447	12.05	150.4738616943359	1351.506225585938	98.13917541503899	-189.728012084961	271.0085144042969	200.787857055664	-190.0135192871094	1142.087768554688	27.15111923217764	-277.5606994628906	591.239013671875	-59.17766571044929	-58.72932434082029	878.6331176757812	-174.8269195556641	-325.7686462402344	1347.955444335938	39.35950851440417	30.0465393066406	1039.525634765625	197.3969573974609	243.9501495361328	892.3873291015625	249.7976531982422	-98.68671417236328	1412.707885742188	17.82653427124014	-362.2993774414062	1074.898315429688	-77.91772460937511	-209.0887603759766	427.6627197265625	-80.24660491943365	-24.86283683776858	156.9876556396484	161.0273895263672	279.1779479980469	940.9811401367188	-154.1753540039063	-531.6052856445312	1101.52099609375	-5.981488704681529	-513.5795288085938	1106.14306640625	131.7108306884764	-346.4981994628906	1060.585815429688	163.7910766601562	-49.03118515014648	856.3276977539062	-69.22242736816412	-160.6553192138672	631.8410034179688	109.7963943481445	-179.3684387207032	673.119384765625	215.1341400146484	-302.6564025878906	605.6576538085938	-138.7072448730469	-149.6398620605469	278.0925903320312	121.8265151977539	-367.9532165527344	605.309814453125	-91.86415863037118	-245.06298828125	254.1460723876953	151.6406249999999	23.99342536926271	1045.6357421875	-155.128646850586	69.33630371093753	1075.628173828125	-201.4184265136719	69.92343902587888	1072.509155273438	248.7386779785156	275.9774780273438	937.2177734375	200.4321746826172	249.3197784423828	888.3008422851562	-188.8089752197266	159.3939208984375	1349.749633789062	-48.83005523681647	40.45875930786134	1445.602172851562	-62.96498489379891	27.53531455993652	1471.40234375	69.71066284179679	-20.42346191406252	1332.321411132812	169.9259643554687	-70.43158721923827	1328.942626953125	-135.5194091796876	-71.53634643554688	1267.859741210938	22.45361709594718	326.3153076171875	937.4181518554688	-227.4962463378907	325.2467041015624	926.7476196289062	287.6459350585938	
